HIERARCHY
ROOT hip
{
  OFFSET 0 0 0
  CHANNELS 6 Xposition Yposition Zposition Zrotation Yrotation Xrotation
  JOINT abdomen
  {
    OFFSET 0 20.6881 -0.73152
    CHANNELS 3 Zrotation Xrotation Yrotation
    JOINT chest
    {
      OFFSET 0 11.7043 -0.48768
      CHANNELS 3 Zrotation Xrotation Yrotation
      JOINT neck
      {
        OFFSET 0 22.1894 -2.19456
        CHANNELS 3 Zrotation Xrotation Yrotation
        JOINT head
        {
          OFFSET -0.24384 7.07133 1.2192
          CHANNELS 3 Zrotation Xrotation Yrotation
          JOINT leftEye
          {
            OFFSET 4.14528 8.04674 8.04672
            CHANNELS 3 Zrotation Xrotation Yrotation
            End Site
            {
              OFFSET 1 0 0
            }
          }
          JOINT rightEye
          {
            OFFSET -3.6576 8.04674 8.04672
            CHANNELS 3 Zrotation Xrotation Yrotation
            End Site
            {
              OFFSET 1 0 0
            }
          }
        }
      }
      JOINT rCollar
      {
        OFFSET -2.68224 19.2634 -4.8768
        CHANNELS 3 Zrotation Xrotation Yrotation
        JOINT rShldr
        {
          OFFSET -8.77824 -1.95073 1.46304
          CHANNELS 3 Zrotation Xrotation Yrotation
          JOINT rForeArm
          {
            OFFSET -28.1742 -1.7115 0.48768
            CHANNELS 3 Zrotation Xrotation Yrotation
            JOINT rHand
            {
              OFFSET -22.5879 0.773209 7.07136
              CHANNELS 3 Zrotation Xrotation Yrotation
              JOINT rThumb1
              {
                OFFSET -1.2192 -0.487915 3.41376
                CHANNELS 3 Zrotation Xrotation Yrotation
                JOINT rThumb2
                {
                  OFFSET -3.37035 -0.52449 3.41376
                  CHANNELS 3 Zrotation Xrotation Yrotation
                  End Site
                  {
                    OFFSET -1.78271 -1.18214 1.43049
                  }
                }
              }
              JOINT rIndex1
              {
                OFFSET -7.75947 0.938293 5.60832
                CHANNELS 3 Zrotation Xrotation Yrotation
                JOINT rIndex2
                {
                  OFFSET -2.54057 -0.884171 1.56538
                  CHANNELS 3 Zrotation Xrotation Yrotation
                  End Site
                  {
                    OFFSET -1.62519 -0.234802 1.16502
                  }
                }
              }
              JOINT rMid1
              {
                OFFSET -8.24714 1.18213 3.41376
                CHANNELS 3 Zrotation Xrotation Yrotation
                JOINT rMid2
                {
                  OFFSET -3.10165 -0.590103 1.0647
                  CHANNELS 3 Zrotation Xrotation Yrotation
                  End Site
                  {
                    OFFSET -2.48547 -0.328903 0.83742
                  }
                }
              }
              JOINT rRing1
              {
                OFFSET -8.82822 0.546677 1.51678
                CHANNELS 3 Zrotation Xrotation Yrotation
                JOINT rRing2
                {
                  OFFSET -2.60934 -0.819778 -0.0198488
                  CHANNELS 3 Zrotation Xrotation Yrotation
                  End Site
                  {
                    OFFSET -2.33842 -0.294052 0.168128
                  }
                }
              }
              JOINT rPinky1
              {
                OFFSET -8.27202 -0.0477905 -0.4584
                CHANNELS 3 Zrotation Xrotation Yrotation
                JOINT rPinky2
                {
                  OFFSET -1.82734 -0.647385 -0.700984
                  CHANNELS 3 Zrotation Xrotation Yrotation
                  End Site
                  {
                    OFFSET -1.69225 -0.51767 -0.607171
                  }
                }
              }
            }
          }
        }
      }
      JOINT lCollar
      {
        OFFSET 2.68224 19.2634 -4.8768
        CHANNELS 3 Zrotation Xrotation Yrotation
        JOINT lShldr
        {
          OFFSET 8.77824 -1.95073 1.46304
          CHANNELS 3 Zrotation Xrotation Yrotation
          JOINT lForeArm
          {
            OFFSET 28.1742 -1.7115 0.48768
            CHANNELS 3 Zrotation Xrotation Yrotation
            JOINT lHand
            {
              OFFSET 22.5879 0.773209 7.07136
              CHANNELS 3 Zrotation Xrotation Yrotation
              JOINT lThumb1
              {
                OFFSET 1.2192 -0.487915 3.41376
                CHANNELS 3 Zrotation Xrotation Yrotation
                JOINT lThumb2
                {
                  OFFSET 3.37035 -0.52449 3.41376
                  CHANNELS 3 Zrotation Xrotation Yrotation
                  End Site
                  {
                    OFFSET 1.78271 -1.18214 1.43049
                  }
                }
              }
              JOINT lIndex1
              {
                OFFSET 7.75947 0.938293 5.60832
                CHANNELS 3 Zrotation Xrotation Yrotation
                JOINT lIndex2
                {
                  OFFSET 2.54057 -0.884171 1.56538
                  CHANNELS 3 Zrotation Xrotation Yrotation
                  End Site
                  {
                    OFFSET 1.62519 -0.234802 1.16502
                  }
                }
              }
              JOINT lMid1
              {
                OFFSET 8.24714 1.18213 3.41376
                CHANNELS 3 Zrotation Xrotation Yrotation
                JOINT lMid2
                {
                  OFFSET 3.10165 -0.590103 1.0647
                  CHANNELS 3 Zrotation Xrotation Yrotation
                  End Site
                  {
                    OFFSET 2.48547 -0.328903 0.83742
                  }
                }
              }
              JOINT lRing1
              {
                OFFSET 8.82822 0.546677 1.51678
                CHANNELS 3 Zrotation Xrotation Yrotation
                JOINT lRing2
                {
                  OFFSET 2.60934 -0.819778 -0.0198488
                  CHANNELS 3 Zrotation Xrotation Yrotation
                  End Site
                  {
                    OFFSET 2.33842 -0.294052 0.168128
                  }
                }
              }
              JOINT lPinky1
              {
                OFFSET 8.27202 -0.0477905 -0.4584
                CHANNELS 3 Zrotation Xrotation Yrotation
                JOINT lPinky2
                {
                  OFFSET 1.82734 -0.647385 -0.700984
                  CHANNELS 3 Zrotation Xrotation Yrotation
                  End Site
                  {
                    OFFSET 1.69225 -0.51767 -0.607171
                  }
                }
              }
            }
          }
        }
      }
    }
  }
  JOINT rButtock
  {
    OFFSET -8.77824 4.35084 1.2192
    CHANNELS 3 Zrotation Xrotation Yrotation
    JOINT rThigh
    {
      OFFSET 0 -1.70687 -2.19456
      CHANNELS 3 Zrotation Xrotation Yrotation
      JOINT rShin
      {
        OFFSET 0 -36.8199 0.73152
        CHANNELS 3 Zrotation Xrotation Yrotation
        JOINT rFoot
        {
          OFFSET 0.73152 -45.1104 -5.12064
          CHANNELS 3 Zrotation Xrotation Yrotation
          End Site
          {
            OFFSET -1.1221 -3.69964 12.103
          }
        }
      }
    }
  }
  JOINT lButtock
  {
    OFFSET 8.77824 4.35084 1.2192
    CHANNELS 3 Zrotation Xrotation Yrotation
    JOINT lThigh
    {
      OFFSET 0 -1.70687 -2.19456
      CHANNELS 3 Zrotation Xrotation Yrotation
      JOINT lShin
      {
        OFFSET 0 -36.8199 0.73152
        CHANNELS 3 Zrotation Xrotation Yrotation
        JOINT lFoot
        {
          OFFSET -0.73152 -45.1104 -5.12064
          CHANNELS 3 Zrotation Xrotation Yrotation
          End Site
          {
            OFFSET 1.1221 -3.69964 12.103
          }
        }
      }
    }
  }
}
MOTION
Frames:	6
Frame Time:	0.00833333
-25.546 83.7538 101.466 0.0 0.0 0.0 -0.555346 -0.00305891 -0.0158856 -0.153309 -0.0047609 -0.0265634 -3.8818e-15 0.0 -1.42876e-16 -1.16413e-14 3.18055e-15 -4.13099e-16 -0.0 0.0 0.0 -0.0 0.0 0.0 -1.79047e-15 -4.27076e-18 1.49089e-16 -3.93915e-14 -4.9075e-16 -9.93923e-16 -6.88739e-13 2.06537e-13 -4.13472e-14 -7.96805e-12 -2.22788e-13 -2.79889e-13 -1.87823e-11 -2.99212e-14 -6.87e-13 -3.24476e-11 -4.77083e-14 -1.1776e-12 -1.87792e-11 -3.1408e-14 -6.93361e-13 7.73091 5.47488 0.417314 -1.87842e-11 -3.03147e-14 -6.80639e-13 2.90554 0.965183 0.102902 -1.87838e-11 -3.03147e-14 -6.81434e-13 10.2786 0.731801 0.0259123 -1.87903e-11 -2.54444e-14 -6.71097e-13 2.22167 -0.733487 -0.20892 -1.98657e-15 -2.71776e-18 -2.48481e-16 -4.09404e-14 -4.16205e-16 -2.38542e-15 -7.01064e-13 -2.13097e-13 9.54166e-15 -7.95478e-12 1.86659e-13 -3.14875e-13 -1.87725e-11 -5.36153e-14 -6.74278e-13 -3.24043e-11 -9.22361e-14 -1.17283e-12 -1.8776e-11 -5.56597e-14 -6.61555e-13 -7.73091 5.47488 -0.417314 -1.87713e-11 -5.42682e-14 -6.80639e-13 -2.90554 0.965183 -0.102902 -1.87755e-11 -5.38706e-14 -6.79048e-13 -10.2786 0.731801 -0.0259123 -1.87617e-11 -5.00937e-14 -6.93361e-13 -2.22167 -0.733487 0.20892 -2.03217e-16 0.0 -3.88251e-19 0.0645732 -2.35904 -0.0223844 -0.00798485 -1.27855 -0.0684684 -0.484868 3.6378 0.128992 2.03217e-16 0.0 3.88251e-19 -0.910206 -4.5005 0.0764468 0.00202043 2.60031 0.00926436 0.49274 1.90048 -0.0947555
-27.1055 81.3513 94.0993 -163.988 -60.2277 177.369 -0.734122 -3.72275 3.65562 -1.49702 -0.605885 0.961499 -4.23118 1.51489 -2.30326 6.71911 3.99312 -5.49911 -0.0 0.0 0.0 -0.0 0.0 0.0 6.29515e-14 5.47819e-13 2.33313e-13 3.9672 0.182405 4.01372 -10.7639 -7.64126 12.7779 0.0409654 4.49261 0.624407 8.31244e-10 5.57221e-10 -2.38964e-10 1.43283e-09 9.5449e-10 -4.2139e-10 8.31248e-10 5.57219e-10 -2.38972e-10 7.73091 5.47488 0.417314 8.31241e-10 5.57222e-10 -2.3896e-10 2.90554 0.965183 0.102902 8.31244e-10 5.57222e-10 -2.38959e-10 10.2786 0.731801 0.0259123 8.31237e-10 5.57227e-10 -2.38951e-10 2.22167 -0.733487 -0.20892 6.2798e-14 5.47815e-13 2.32958e-13 -11.2359 -5.68763 7.13958 5.11318 -2.53402 -7.74425 -0.138976 -8.28652 1.1211 1.0527e-09 1.30081e-09 -2.10008e-10 1.8191e-09 2.31938e-09 -3.36967e-10 1.05269e-09 1.3008e-09 -2.09999e-10 -7.73091 5.47488 -0.417314 1.0527e-09 1.3008e-09 -2.10014e-10 -2.90554 0.965183 -0.102902 1.05269e-09 1.3008e-09 -2.10013e-10 -10.2786 0.731801 -0.0259123 1.05271e-09 1.30081e-09 -2.10025e-10 -2.22167 -0.733487 0.20892 -2.03217e-16 0.0 -3.88251e-19 -0.973235 -9.98111 3.26812 0.0118556 9.19796 0.0925855 -1.28303 -1.82666 -5.55253 2.03217e-16 0.0 3.88251e-19 3.7188 -14.2138 -1.75359 0.011216 14.9052 -0.158936 0.751531 -5.13732 0.828371
-27.305 81.3099 94.01 -164.054 -58.8044 177.315 -0.408073 -7.62237 7.58622 -2.90579 -1.2381 2.00569 -8.57851 3.09411 -4.73619 14.6674 8.09746 -11.3783 -0.0 0.0 0.0 -0.0 0.0 0.0 1.3848e-13 1.14525e-12 4.9416e-13 8.13898 0.368659 8.24702 -18.4807 -14.4583 26.9814 -0.0234367 9.2327 1.29634 1.74891e-09 1.16289e-09 -4.93149e-10 3.01479e-09 1.9923e-09 -8.69638e-10 1.74892e-09 1.16289e-09 -4.9316e-10 7.73091 5.47488 0.417314 1.74891e-09 1.1629e-09 -4.93149e-10 2.90554 0.965183 0.102902 1.74892e-09 1.1629e-09 -4.93145e-10 10.2786 0.731801 0.0259123 1.74891e-09 1.1629e-09 -4.93139e-10 2.22167 -0.733487 -0.20892 1.38374e-13 1.14524e-12 4.93849e-13 -21.5984 -11.3671 14.8767 9.77724 -5.05564 -15.9739 0.081242 -17.0216 2.38501 2.25894e-09 2.72889e-09 -4.55247e-10 3.90383e-09 4.86843e-09 -7.31608e-10 2.25894e-09 2.72888e-09 -4.55242e-10 -7.73091 5.47488 -0.417314 2.25894e-09 2.72888e-09 -4.55251e-10 -2.90554 0.965183 -0.102902 2.25894e-09 2.72888e-09 -4.55251e-10 -10.2786 0.731801 -0.0259123 2.25895e-09 2.72889e-09 -4.55261e-10 -2.22167 -0.733487 0.20892 -2.03217e-16 0.0 -3.88251e-19 -1.03911 -17.9515 6.99112 -0.0345183 20.273 0.277555 -3.30906 -7.43983 -11.6911 2.03217e-16 0.0 3.88251e-19 7.92119 -24.4957 -3.915 0.109414 27.929 -0.368444 1.25664 -12.5728 1.77554
-27.5505 81.3013 94.0422 -164.873 -57.5386 177.896 0.351216 -10.9777 11.1827 -4.12225 -1.80601 2.93892 -12.3282 4.51527 -6.92896 22.4612 11.5346 -16.8063 -0.0 0.0 0.0 -0.0 0.0 0.0 1.92435e-13 1.64347e-12 6.99642e-13 11.8255 0.536492 12.0416 -22.4919 -18.3159 40.4165 -0.177881 13.4713 1.92032 2.5313e-09 1.67172e-09 -7.15518e-10 4.36339e-09 2.86357e-09 -1.26181e-09 2.5313e-09 1.67172e-09 -7.15529e-10 7.73091 5.47488 0.417314 2.53129e-09 1.67173e-09 -7.1552e-10 2.90554 0.965183 0.102902 2.5313e-09 1.67173e-09 -7.15514e-10 10.2786 0.731801 0.0259123 2.53129e-09 1.67173e-09 -7.1551e-10 2.22167 -0.733487 -0.20892 1.92367e-13 1.64345e-12 6.9937e-13 -29.424 -15.9866 22.2148 13.3341 -7.04775 -23.3971 0.639412 -24.8195 3.66732 3.19564e-09 3.90252e-09 -6.28676e-10 5.52212e-09 6.95833e-09 -1.00856e-09 3.19563e-09 3.90252e-09 -6.28675e-10 -7.73091 5.47488 -0.417314 3.19564e-09 3.90251e-09 -6.2868e-10 -2.90554 0.965183 -0.102902 3.19563e-09 3.90252e-09 -6.2868e-10 -10.2786 0.731801 -0.0259123 3.19564e-09 3.90252e-09 -6.28688e-10 -2.22167 -0.733487 0.20892 -2.03217e-16 0.0 -3.88251e-19 -0.203396 -24.8869 10.7047 -0.145906 30.1502 0.475406 -6.13751 -12.2203 -17.3108 2.03217e-16 0.0 3.88251e-19 10.7927 -33.4997 -6.30221 0.301405 39.5133 -0.621249 1.98109 -19.1929 2.82148
-27.7996 81.328 94.0457 -165.623 -56.3552 178.293 1.15993 -13.1496 13.7643 -4.90127 -2.21519 3.59353 -14.834 5.5682 -8.50402 28.2495 13.721 -20.8114 -0.0 0.0 0.0 -0.0 0.0 0.0 1.92455e-13 1.89363e-12 7.66712e-13 14.3498 0.667871 14.7392 -24.0951 -19.2758 49.9116 -0.34436 16.4624 2.38017 2.97545e-09 1.93844e-09 -8.58343e-10 5.12862e-09 3.31848e-09 -1.5138e-09 2.97546e-09 1.93843e-09 -8.58355e-10 7.73091 5.47488 0.417314 2.97545e-09 1.93844e-09 -8.58346e-10 2.90554 0.965183 0.102902 2.97546e-09 1.93844e-09 -8.58339e-10 10.2786 0.731801 0.0259123 2.97545e-09 1.93845e-09 -8.58336e-10 2.22167 -0.733487 -0.20892 1.92405e-13 1.89361e-12 7.66464e-13 -33.8622 -18.9383 27.8225 15.5116 -8.24118 -28.6481 1.27727 -30.3119 4.71299 3.45845e-09 4.44006e-09 -6.22584e-10 5.97434e-09 7.90036e-09 -9.9127e-10 3.45845e-09 4.44006e-09 -6.22584e-10 -7.73091 5.47488 -0.417314 3.45845e-09 4.44005e-09 -6.22587e-10 -2.90554 0.965183 -0.102902 3.45845e-09 4.44006e-09 -6.22587e-10 -10.2786 0.731801 -0.0259123 3.45845e-09 4.44006e-09 -6.22594e-10 -2.22167 -0.733487 0.20892 -2.03217e-16 0.0 -3.88251e-19 0.792809 -29.5536 13.6008 -0.27481 37.0335 0.646665 -8.6603 -15.4665 -21.2088 2.03217e-16 0.0 3.88251e-19 11.9724 -39.435 -8.44296 0.523544 47.5 -0.869666 2.82469 -23.7864 3.9952
-28.0307 81.38 94.0986 -166.199 -55.2735 178.55 1.60566 -13.7615 14.8598 -5.11854 -2.41102 3.87195 -15.6455 6.1519 -9.22165 30.5086 14.4063 -22.6785 -0.0 0.0 0.0 -0.0 0.0 0.0 9.356e-14 1.78644e-12 6.01096e-13 15.2945 0.732922 15.8285 -24.5216 -19.1515 53.4194 -0.428269 17.7328 2.58126 2.94215e-09 1.84339e-09 -8.97782e-10 5.07008e-09 3.15011e-09 -1.58387e-09 2.94216e-09 1.84339e-09 -8.97795e-10 7.73091 5.47488 0.417314 2.94215e-09 1.8434e-09 -8.97785e-10 2.90554 0.965183 0.102902 2.94216e-09 1.8434e-09 -8.9778e-10 10.2786 0.731801 0.0259123 2.94215e-09 1.8434e-09 -8.97777e-10 2.22167 -0.733487 -0.20892 9.34949e-14 1.78642e-12 6.00843e-13 -34.8308 -20.2445 30.5247 16.3269 -8.67861 -30.7787 1.61332 -32.6431 5.20313 2.52783e-09 4.13462e-09 -2.40668e-10 4.3597e-09 7.29371e-09 -3.52637e-10 2.52783e-09 4.13462e-09 -2.40666e-10 -7.73091 5.47488 -0.417314 2.52783e-09 4.13461e-09 -2.40671e-10 -2.90554 0.965183 -0.102902 2.52783e-09 4.13462e-09 -2.4067e-10 -10.2786 0.731801 -0.0259123 2.52783e-09 4.13462e-09 -2.40676e-10 -2.22167 -0.733487 0.20892 -2.03217e-16 0.0 -3.88251e-19 0.923609 -31.2543 14.7157 -0.339606 39.7086 0.724975 -9.71189 -17.0386 -22.3175 2.03217e-16 0.0 3.88251e-19 11.8196 -41.1563 -9.55366 0.633898 50.4568 -0.993002 3.6449 -25.528 5.32941
